<svg xmlns="http://www.w3.org/2000/svg" xmlns:xlink="http://www.w3.org/1999/xlink" preserveAspectRatio="none" width="300" height="250" viewBox="0 0 300 250"><defs><g id="a"><path fill="#FEA927" d="M150.05 187.7h-.1l-18.7 31.2-18.75-31.25-37.5 62.5h74.95v-.1h.1v.1H225l-37.5-62.5-18.75 31.25-18.7-31.2z"/><path fill="#FEE1B2" d="M150.05 125.2h-.1l-37.45 62.45 18.75 31.25 18.7-31.2v-.15h.1v.15l18.7 31.2 18.75-31.25-37.45-62.45z"/><path fill="#FE9900" d="M112.5 187.5l-18.75-31.25L75 187.5l18.75 31.25 18.75-31.25m112.5 0l-18.75-31.25-18.75 31.25 18.75 31.25L225 187.5z"/><path fill="#EE6E00" d="M75 187.5L37.5 125 18.75 93.75 0 125l75 125 18.75-31.25L75 187.5M262.5 125L225 187.5l-18.75 31.25L225 250l75-125-18.75-31.25L262.5 125z"/><path fill="#E55200" d="M75 0L18.75 93.75 37.5 125l75-125H75m150 0h-37.5l75 125 18.75-31.25L225 0m-75 93.75h-37.5L131.25 125 150 93.75M93.75 62.5l18.75 31.25 18.75-31.25h-37.5m75 62.5l18.75-31.25H150L168.75 125m0-62.5l18.75 31.25 18.75-31.25h-37.5z"/></g></defs><use xlink:href="#a"/></svg>